<svg width="66" height="67" viewBox="0 0 66 67" fill="none" xmlns="http://www.w3.org/2000/svg">
<circle cx="33.4972" cy="31.5269" r="20.6821" stroke="#7D9AED"/>
<path d="M0.98521 23.6376H32.0194H63.0536" stroke="#7D9AED"/>
<line x1="0.98521" y1="40.8789" x2="63.0536" y2="40.8789" stroke="#7D9AED"/>
<line x1="22.1747" y1="2.18557e-08" x2="22.1747" y2="66.9944" stroke="#7D9AED"/>
<line x1="42.8641" y1="2.18557e-08" x2="42.8641" y2="66.9944" stroke="#7D9AED"/>
<line x1="0.346384" y1="1.1172" x2="62.9074" y2="61.2152" stroke="#7D9AED"/>
<line x1="1.55245" y1="57.6081" x2="65.0644" y2="3.79926" stroke="#7D9AED"/>
<mask id="path-8-outside-1_1_552" maskUnits="userSpaceOnUse" x="25" y="19" width="12" height="24" fill="black">
<rect fill="white" x="25" y="19" width="12" height="24"/>
<path d="M31.0385 42V24.84L26.9885 27.33V22.83L31.0385 20.4H35.2085V42H31.0385Z"/>
</mask>
<path d="M31.0385 42V24.84L26.9885 27.33V22.83L31.0385 20.4H35.2085V42H31.0385Z" fill="#1D4ED8"/>
<path d="M31.0385 42H30.0385V43H31.0385V42ZM31.0385 24.84H32.0385V23.0513L30.5147 23.9881L31.0385 24.84ZM26.9885 27.33H25.9885V29.1187L27.5122 28.1819L26.9885 27.33ZM26.9885 22.83L26.474 21.9725L25.9885 22.2638V22.83H26.9885ZM31.0385 20.4V19.4H30.7615L30.524 19.5425L31.0385 20.4ZM35.2085 20.4H36.2085V19.4H35.2085V20.4ZM35.2085 42V43H36.2085V42H35.2085ZM32.0385 42V24.84H30.0385V42H32.0385ZM30.5147 23.9881L26.4647 26.4781L27.5122 28.1819L31.5622 25.6919L30.5147 23.9881ZM27.9885 27.33V22.83H25.9885V27.33H27.9885ZM27.503 23.6875L31.553 21.2575L30.524 19.5425L26.474 21.9725L27.503 23.6875ZM31.0385 21.4H35.2085V19.4H31.0385V21.4ZM34.2085 20.4V42H36.2085V20.4H34.2085ZM35.2085 41H31.0385V43H35.2085V41Z" fill="#1D4ED8" mask="url(#path-8-outside-1_1_552)"/>
</svg>
