<svg width="66" height="67" viewBox="0 0 66 67" fill="none" xmlns="http://www.w3.org/2000/svg">
<circle cx="33.4972" cy="31.5269" r="20.6821" stroke="#7D9AED"/>
<path d="M0.985199 23.6376H32.0194H63.0536" stroke="#7D9AED"/>
<line x1="0.985199" y1="40.8789" x2="63.0536" y2="40.8789" stroke="#7D9AED"/>
<line x1="22.1747" y1="2.18557e-08" x2="22.1747" y2="66.9944" stroke="#7D9AED"/>
<line x1="42.8641" y1="2.18557e-08" x2="42.8641" y2="66.9944" stroke="#7D9AED"/>
<line x1="0.346384" y1="1.1172" x2="62.9074" y2="61.2152" stroke="#7D9AED"/>
<line x1="1.55246" y1="57.6081" x2="65.0644" y2="3.79926" stroke="#7D9AED"/>
<mask id="path-8-outside-1_1_560" maskUnits="userSpaceOnUse" x="23" y="18" width="19" height="25" fill="black">
<rect fill="white" x="23" y="18" width="19" height="25"/>
<path d="M24.9473 41.97V38.43L34.0073 30.39C34.6873 29.79 35.1673 29.225 35.4473 28.695C35.7273 28.165 35.8673 27.67 35.8673 27.21C35.8673 26.55 35.7323 25.965 35.4623 25.455C35.1923 24.935 34.8123 24.53 34.3223 24.24C33.8323 23.94 33.2573 23.79 32.5973 23.79C31.9073 23.79 31.2973 23.95 30.7673 24.27C30.2473 24.58 29.8423 24.995 29.5523 25.515C29.2623 26.025 29.1273 26.58 29.1473 27.18H24.9473C24.9473 25.7 25.2723 24.42 25.9223 23.34C26.5723 22.26 27.4773 21.425 28.6373 20.835C29.7973 20.245 31.1473 19.95 32.6873 19.95C34.0973 19.95 35.3573 20.26 36.4673 20.88C37.5873 21.49 38.4673 22.345 39.1073 23.445C39.7473 24.545 40.0673 25.82 40.0673 27.27C40.0673 28.34 39.9173 29.23 39.6173 29.94C39.3173 30.64 38.8723 31.29 38.2823 31.89C37.6923 32.48 36.9673 33.15 36.1073 33.9L30.2573 39.03L29.9273 38.13H40.0673V41.97H24.9473Z"/>
</mask>
<path d="M24.9473 41.97V38.43L34.0073 30.39C34.6873 29.79 35.1673 29.225 35.4473 28.695C35.7273 28.165 35.8673 27.67 35.8673 27.21C35.8673 26.55 35.7323 25.965 35.4623 25.455C35.1923 24.935 34.8123 24.53 34.3223 24.24C33.8323 23.94 33.2573 23.79 32.5973 23.79C31.9073 23.79 31.2973 23.95 30.7673 24.27C30.2473 24.58 29.8423 24.995 29.5523 25.515C29.2623 26.025 29.1273 26.58 29.1473 27.18H24.9473C24.9473 25.7 25.2723 24.42 25.9223 23.34C26.5723 22.26 27.4773 21.425 28.6373 20.835C29.7973 20.245 31.1473 19.95 32.6873 19.95C34.0973 19.95 35.3573 20.26 36.4673 20.88C37.5873 21.49 38.4673 22.345 39.1073 23.445C39.7473 24.545 40.0673 25.82 40.0673 27.27C40.0673 28.34 39.9173 29.23 39.6173 29.94C39.3173 30.64 38.8723 31.29 38.2823 31.89C37.6923 32.48 36.9673 33.15 36.1073 33.9L30.2573 39.03L29.9273 38.13H40.0673V41.97H24.9473Z" fill="#1D4ED8"/>
<path d="M24.9473 41.97H23.9473V42.97H24.9473V41.97ZM24.9473 38.43L24.2835 37.682L23.9473 37.9804V38.43H24.9473ZM34.0073 30.39L33.3456 29.6402L33.3435 29.642L34.0073 30.39ZM35.4473 28.695L34.5631 28.2279H34.5631L35.4473 28.695ZM35.4623 25.455L34.5747 25.9158L34.5785 25.9229L35.4623 25.455ZM34.3223 24.24L33.8001 25.0928L33.8065 25.0968L33.8129 25.1006L34.3223 24.24ZM30.7673 24.27L31.2793 25.129L31.2841 25.1261L30.7673 24.27ZM29.5523 25.515L30.4216 26.0093L30.4256 26.0021L29.5523 25.515ZM29.1473 27.18V28.18H30.1812L30.1467 27.1467L29.1473 27.18ZM24.9473 27.18H23.9473V28.18H24.9473V27.18ZM25.9223 23.34L26.7791 23.8557L25.9223 23.34ZM28.6373 20.835L29.0906 21.7263H29.0906L28.6373 20.835ZM36.4673 20.88L35.9796 21.7531L35.989 21.7582L36.4673 20.88ZM39.6173 29.94L40.5364 30.3339L40.5384 30.3292L39.6173 29.94ZM38.2823 31.89L38.9894 32.5971L38.9953 32.5911L38.2823 31.89ZM36.1073 33.9L35.45 33.1463L35.4479 33.1481L36.1073 33.9ZM30.2573 39.03L29.3184 39.3743L29.8203 40.7432L30.9166 39.7819L30.2573 39.03ZM29.9273 38.13V37.13H28.4955L28.9884 38.4743L29.9273 38.13ZM40.0673 38.13H41.0673V37.13H40.0673V38.13ZM40.0673 41.97V42.97H41.0673V41.97H40.0673ZM25.9473 41.97V38.43H23.9473V41.97H25.9473ZM25.611 39.178L34.671 31.138L33.3435 29.642L24.2835 37.682L25.611 39.178ZM34.6689 31.1398C35.3978 30.4967 35.9738 29.8392 36.3315 29.1621L34.5631 28.2279C34.3608 28.6108 33.9768 29.0833 33.3456 29.6402L34.6689 31.1398ZM36.3315 29.1621C36.6652 28.5304 36.8673 27.8747 36.8673 27.21H34.8673C34.8673 27.4653 34.7893 27.7996 34.5631 28.2279L36.3315 29.1621ZM36.8673 27.21C36.8673 26.4105 36.7027 25.6608 36.3461 24.9871L34.5785 25.9229C34.7618 26.2692 34.8673 26.6895 34.8673 27.21H36.8673ZM36.3498 24.9942C35.9962 24.3133 35.4874 23.7676 34.8316 23.3794L33.8129 25.1006C34.1371 25.2924 34.3883 25.5567 34.5748 25.9158L36.3498 24.9942ZM34.8444 23.3871C34.175 22.9773 33.4136 22.79 32.5973 22.79V24.79C33.1009 24.79 33.4895 24.9027 33.8001 25.0928L34.8444 23.3871ZM32.5973 22.79C31.7465 22.79 30.9537 22.9893 30.2504 23.4139L31.2841 25.1261C31.6408 24.9107 32.068 24.79 32.5973 24.79V22.79ZM30.2552 23.4111C29.5868 23.8095 29.056 24.3517 28.6789 25.0279L30.4256 26.0021C30.6285 25.6383 30.9077 25.3505 31.2793 25.1289L30.2552 23.4111ZM28.683 25.0207C28.2995 25.6951 28.1218 26.4333 28.1478 27.2133L30.1467 27.1467C30.1327 26.7267 30.225 26.3549 30.4216 26.0093L28.683 25.0207ZM29.1473 26.18H24.9473V28.18H29.1473V26.18ZM25.9473 27.18C25.9473 25.8497 26.238 24.7547 26.7791 23.8557L25.0655 22.8243C24.3065 24.0853 23.9473 25.5503 23.9473 27.18H25.9473ZM26.7791 23.8557C27.3292 22.9416 28.0919 22.2343 29.0906 21.7263L28.1839 19.9437C26.8626 20.6157 25.8153 21.5784 25.0655 22.8243L26.7791 23.8557ZM29.0906 21.7263C30.0866 21.2197 31.2761 20.95 32.6873 20.95V18.95C31.0184 18.95 29.5079 19.2703 28.1839 19.9437L29.0906 21.7263ZM32.6873 20.95C33.9456 20.95 35.0344 21.2251 35.9796 21.753L36.9549 20.007C35.6801 19.2949 34.249 18.95 32.6873 18.95V20.95ZM35.989 21.7582C36.9488 22.2809 37.6951 23.0063 38.2429 23.9479L39.9716 22.9421C39.2395 21.6837 38.2258 20.6991 36.9456 20.0018L35.989 21.7582ZM38.2429 23.9479C38.7823 24.8749 39.0673 25.9716 39.0673 27.27H41.0673C41.0673 25.6684 40.7123 24.2151 39.9716 22.9421L38.2429 23.9479ZM39.0673 27.27C39.0673 28.2547 38.9281 29.0018 38.6961 29.5508L40.5384 30.3292C40.9065 29.4582 41.0673 28.4253 41.0673 27.27H39.0673ZM38.6981 29.5461C38.452 30.1203 38.0812 30.6683 37.5692 31.1889L38.9953 32.5911C39.6634 31.9117 40.1825 31.1597 40.5364 30.3339L38.6981 29.5461ZM37.5752 31.1829C37.0058 31.7522 36.2986 32.4063 35.45 33.1463L36.7645 34.6537C37.6359 33.8937 38.3787 33.2078 38.9894 32.5971L37.5752 31.1829ZM35.4479 33.1481L29.5979 38.2781L30.9166 39.7819L36.7666 34.6519L35.4479 33.1481ZM31.1961 38.6857L30.8661 37.7857L28.9884 38.4743L29.3184 39.3743L31.1961 38.6857ZM29.9273 39.13H40.0673V37.13H29.9273V39.13ZM39.0673 38.13V41.97H41.0673V38.13H39.0673ZM40.0673 40.97H24.9473V42.97H40.0673V40.97Z" fill="#1D4ED8" mask="url(#path-8-outside-1_1_560)"/>
</svg>
