<svg width="66" height="67" viewBox="0 0 66 67" fill="none" xmlns="http://www.w3.org/2000/svg">
<circle cx="33.4972" cy="31.5269" r="20.6821" stroke="#7D9AED"/>
<path d="M0.985229 23.6376H32.0194H63.0536" stroke="#7D9AED"/>
<line x1="0.985229" y1="40.8789" x2="63.0536" y2="40.8789" stroke="#7D9AED"/>
<line x1="22.1747" y1="2.18557e-08" x2="22.1747" y2="66.9944" stroke="#7D9AED"/>
<line x1="42.8641" y1="2.18557e-08" x2="42.8641" y2="66.9944" stroke="#7D9AED"/>
<line x1="0.346384" y1="1.1172" x2="62.9074" y2="61.2152" stroke="#7D9AED"/>
<line x1="1.55246" y1="57.6081" x2="65.0644" y2="3.79926" stroke="#7D9AED"/>
<mask id="path-8-outside-1_1_574" maskUnits="userSpaceOnUse" x="23" y="19" width="18" height="25" fill="black">
<rect fill="white" x="23" y="19" width="18" height="25"/>
<path d="M31.5377 42.39C30.4577 42.39 29.4277 42.175 28.4477 41.745C27.4677 41.305 26.6127 40.69 25.8827 39.9C25.1627 39.11 24.6477 38.18 24.3377 37.11L28.2977 36.06C28.5077 36.85 28.9177 37.465 29.5277 37.905C30.1477 38.335 30.8177 38.55 31.5377 38.55C32.1577 38.55 32.7227 38.4 33.2327 38.1C33.7527 37.8 34.1627 37.395 34.4627 36.885C34.7727 36.375 34.9277 35.81 34.9277 35.19C34.9277 34.26 34.6077 33.465 33.9677 32.805C33.3377 32.135 32.5277 31.8 31.5377 31.8C31.2377 31.8 30.9477 31.845 30.6677 31.935C30.3877 32.015 30.1177 32.13 29.8577 32.28L28.0277 29.07L34.8977 23.37L35.1977 24.24H25.1777V20.4H38.6777V24.24L33.3377 29.4L33.3077 28.26C34.5477 28.45 35.5927 28.885 36.4427 29.565C37.3027 30.235 37.9527 31.065 38.3927 32.055C38.8427 33.035 39.0677 34.08 39.0677 35.19C39.0677 36.55 38.7227 37.775 38.0327 38.865C37.3427 39.945 36.4277 40.805 35.2877 41.445C34.1477 42.075 32.8977 42.39 31.5377 42.39Z"/>
</mask>
<path d="M31.5377 42.39C30.4577 42.39 29.4277 42.175 28.4477 41.745C27.4677 41.305 26.6127 40.69 25.8827 39.9C25.1627 39.11 24.6477 38.18 24.3377 37.11L28.2977 36.06C28.5077 36.85 28.9177 37.465 29.5277 37.905C30.1477 38.335 30.8177 38.55 31.5377 38.55C32.1577 38.55 32.7227 38.4 33.2327 38.1C33.7527 37.8 34.1627 37.395 34.4627 36.885C34.7727 36.375 34.9277 35.81 34.9277 35.19C34.9277 34.26 34.6077 33.465 33.9677 32.805C33.3377 32.135 32.5277 31.8 31.5377 31.8C31.2377 31.8 30.9477 31.845 30.6677 31.935C30.3877 32.015 30.1177 32.13 29.8577 32.28L28.0277 29.07L34.8977 23.37L35.1977 24.24H25.1777V20.4H38.6777V24.24L33.3377 29.4L33.3077 28.26C34.5477 28.45 35.5927 28.885 36.4427 29.565C37.3027 30.235 37.9527 31.065 38.3927 32.055C38.8427 33.035 39.0677 34.08 39.0677 35.19C39.0677 36.55 38.7227 37.775 38.0327 38.865C37.3427 39.945 36.4277 40.805 35.2877 41.445C34.1477 42.075 32.8977 42.39 31.5377 42.39Z" fill="#1D4ED8"/>
<path d="M28.4477 41.745L28.0381 42.6573L28.0459 42.6607L28.4477 41.745ZM25.8827 39.9L25.1436 40.5736L25.1482 40.5787L25.8827 39.9ZM24.3377 37.11L24.0814 36.1434L23.0925 36.4056L23.3772 37.3883L24.3377 37.11ZM28.2977 36.06L29.2641 35.8031L29.0074 34.8373L28.0414 35.0934L28.2977 36.06ZM29.5277 37.905L28.9427 38.716L28.9502 38.7214L28.9578 38.7267L29.5277 37.905ZM33.2327 38.1L32.733 37.2338L32.7257 37.2381L33.2327 38.1ZM34.4627 36.885L33.6082 36.3656L33.6044 36.3718L33.6008 36.378L34.4627 36.885ZM33.9677 32.805L33.2392 33.49L33.2444 33.4956L33.2498 33.5011L33.9677 32.805ZM30.6677 31.935L30.9424 32.8965L30.9581 32.892L30.9737 32.887L30.6677 31.935ZM29.8577 32.28L28.989 32.7753L29.4868 33.6485L30.3574 33.1462L29.8577 32.28ZM28.0277 29.07L27.3892 28.3004L26.7433 28.8362L27.159 29.5653L28.0277 29.07ZM34.8977 23.37L35.8431 23.044L35.3718 21.6773L34.2592 22.6004L34.8977 23.37ZM35.1977 24.24V25.24H36.6003L36.1431 23.914L35.1977 24.24ZM25.1777 24.24H24.1777V25.24H25.1777V24.24ZM25.1777 20.4V19.4H24.1777V20.4H25.1777ZM38.6777 20.4H39.6777V19.4H38.6777V20.4ZM38.6777 24.24L39.3726 24.9591L39.6777 24.6643V24.24H38.6777ZM33.3377 29.4L32.338 29.4263L32.3978 31.6988L34.0326 30.1191L33.3377 29.4ZM33.3077 28.26L33.4592 27.2715L32.2766 27.0903L32.308 28.2863L33.3077 28.26ZM36.4427 29.565L35.8179 30.3459L35.8281 30.3539L36.4427 29.565ZM38.3927 32.055L37.4788 32.4612L37.4839 32.4723L38.3927 32.055ZM38.0327 38.865L38.8754 39.4034L38.8776 39.3999L38.0327 38.865ZM35.2877 41.445L35.7714 42.3203L35.7772 42.317L35.2877 41.445ZM31.5377 41.39C30.5947 41.39 29.7016 41.2032 28.8495 40.8293L28.0459 42.6607C29.1538 43.1468 30.3207 43.39 31.5377 43.39V41.39ZM28.8573 40.8327C28.0004 40.448 27.2558 39.9125 26.6171 39.2213L25.1482 40.5787C25.9696 41.4675 26.935 42.162 28.0381 42.6573L28.8573 40.8327ZM26.6218 39.2264C26.0093 38.5543 25.5675 37.7611 25.2982 36.8317L23.3772 37.3883C23.7279 38.5989 24.3161 39.6657 25.1436 40.5736L26.6218 39.2264ZM24.594 38.0766L28.554 37.0266L28.0414 35.0934L24.0814 36.1434L24.594 38.0766ZM27.3313 36.3169C27.5951 37.3094 28.1287 38.1289 28.9427 38.716L30.1127 37.094C29.7067 36.8011 29.4203 36.3906 29.2641 35.8031L27.3313 36.3169ZM28.9578 38.7267C29.7367 39.2669 30.6039 39.55 31.5377 39.55V37.55C31.0315 37.55 30.5587 37.4031 30.0976 37.0833L28.9578 38.7267ZM31.5377 39.55C32.3271 39.55 33.0686 39.3567 33.7397 38.9619L32.7257 37.2381C32.3768 37.4433 31.9883 37.55 31.5377 37.55V39.55ZM33.7324 38.9662C34.3999 38.5811 34.9356 38.0533 35.3246 37.392L33.6008 36.378C33.3898 36.7367 33.1055 37.0189 32.733 37.2338L33.7324 38.9662ZM35.3172 37.4044C35.7262 36.7316 35.9277 35.9857 35.9277 35.19H33.9277C33.9277 35.6343 33.8192 36.0184 33.6082 36.3656L35.3172 37.4044ZM35.9277 35.19C35.9277 34.0035 35.5088 32.9578 34.6856 32.1089L33.2498 33.5011C33.7065 33.9722 33.9277 34.5165 33.9277 35.19H35.9277ZM34.6962 32.12C33.8617 31.2324 32.78 30.8 31.5377 30.8V32.8C32.2754 32.8 32.8137 33.0376 33.2392 33.49L34.6962 32.12ZM31.5377 30.8C31.1359 30.8 30.7426 30.8605 30.3617 30.983L30.9737 32.887C31.1528 32.8295 31.3395 32.8 31.5377 32.8V30.8ZM30.393 30.9735C30.032 31.0766 29.6866 31.2242 29.358 31.4138L30.3574 33.1462C30.5488 33.0358 30.7434 32.9534 30.9424 32.8965L30.393 30.9735ZM30.7264 31.7847L28.8964 28.5747L27.159 29.5653L28.989 32.7753L30.7264 31.7847ZM28.6662 29.8396L35.5362 24.1396L34.2592 22.6004L27.3892 28.3004L28.6662 29.8396ZM33.9523 23.696L34.2523 24.566L36.1431 23.914L35.8431 23.044L33.9523 23.696ZM35.1977 23.24H25.1777V25.24H35.1977V23.24ZM26.1777 24.24V20.4H24.1777V24.24H26.1777ZM25.1777 21.4H38.6777V19.4H25.1777V21.4ZM37.6777 20.4V24.24H39.6777V20.4H37.6777ZM37.9828 23.5209L32.6428 28.6809L34.0326 30.1191L39.3726 24.9591L37.9828 23.5209ZM34.3373 29.3737L34.3074 28.2337L32.308 28.2863L32.338 29.4263L34.3373 29.3737ZM33.1562 29.2485C34.2498 29.416 35.1245 29.7911 35.818 30.3459L37.0674 28.7841C36.0609 27.9789 34.8456 27.484 33.4592 27.2715L33.1562 29.2485ZM35.8281 30.3539C36.5593 30.9235 37.1061 31.6224 37.4789 32.4611L39.3065 31.6489C38.7993 30.5076 38.0461 29.5465 37.0573 28.7761L35.8281 30.3539ZM37.4839 32.4723C37.872 33.3175 38.0677 34.2197 38.0677 35.19H40.0677C40.0677 33.9403 39.8134 32.7525 39.3015 31.6377L37.4839 32.4723ZM38.0677 35.19C38.0677 36.3714 37.7709 37.409 37.1878 38.3301L38.8776 39.3999C39.6745 38.141 40.0677 36.7286 40.0677 35.19H38.0677ZM37.19 38.3266C36.5903 39.2652 35.7978 40.0118 34.7982 40.573L35.7772 42.317C37.0576 41.5982 38.095 40.6248 38.8754 39.4034L37.19 38.3266ZM34.804 40.5698C33.8187 41.1143 32.7363 41.39 31.5377 41.39V43.39C33.0591 43.39 34.4767 43.0357 35.7714 42.3202L34.804 40.5698Z" fill="#1D4ED8" mask="url(#path-8-outside-1_1_574)"/>
</svg>
