<svg width="35" height="35" viewBox="0 0 35 35" fill="none" xmlns="http://www.w3.org/2000/svg">
<circle cx="17.5" cy="17.5" r="17.5" fill="#BFDBFE"/>
<path d="M15.375 21.0417H19.625M15.375 18.9167H19.625M18.2086 11.1256C18.1409 11.125 18.0648 11.125 17.9779 11.125H14.8085C14.0151 11.125 13.6181 11.125 13.315 11.2794C13.0484 11.4152 12.8319 11.6318 12.6961 11.8984C12.5417 12.2014 12.5417 12.5984 12.5417 13.3918V21.6085C12.5417 22.4019 12.5417 22.7984 12.6961 23.1014C12.8319 23.368 13.0484 23.5849 13.315 23.7207C13.6178 23.875 14.0143 23.875 14.8062 23.875L20.1938 23.875C20.9857 23.875 21.3816 23.875 21.6844 23.7207C21.951 23.5849 22.1682 23.368 22.3041 23.1014C22.4583 22.7987 22.4583 22.4027 22.4583 21.6109V15.6057C22.4583 15.5188 22.4582 15.4427 22.4576 15.375M18.2086 11.1256C18.4108 11.1275 18.5382 11.135 18.6604 11.1643C18.8049 11.199 18.9435 11.2562 19.0702 11.3339C19.2131 11.4215 19.3359 11.5442 19.5807 11.7891L21.7946 14.0029C22.0396 14.248 22.1614 14.3701 22.249 14.5131C22.3267 14.6398 22.3842 14.7781 22.4189 14.9226C22.4482 15.0448 22.4558 15.1728 22.4576 15.375M18.2086 11.1256L18.2083 13.1085C18.2083 13.9019 18.2083 14.2984 18.3627 14.6015C18.4986 14.868 18.7151 15.0849 18.9817 15.2207C19.2844 15.375 19.681 15.375 20.4728 15.375H22.4576" stroke="#1D4ED8" stroke-width="2" stroke-linecap="round" stroke-linejoin="round"/>
</svg>
