<svg width="35" height="35" viewBox="0 0 35 35" fill="none" xmlns="http://www.w3.org/2000/svg">
<circle cx="17.5" cy="17.5" r="17.5" fill="#BFDBFE"/>
<path d="M15.3736 14.9477L13.7784 14.975C12.8982 14.99 12.4579 14.9975 12.1246 15.1746C11.8315 15.3303 11.5954 15.5746 11.4498 15.8729C11.2842 16.212 11.2918 16.6524 11.3068 17.5325L11.382 21.9327C11.397 22.8128 11.4045 23.2526 11.5816 23.5858C11.7373 23.8789 11.9816 24.1155 12.2799 24.2611C12.6187 24.4265 13.0585 24.419 13.9369 24.404L21.4849 24.275C22.3633 24.26 22.8025 24.2524 23.1354 24.0756C23.4286 23.9199 23.6655 23.6751 23.8111 23.3768C23.9765 23.0381 23.969 22.5989 23.954 21.7205L23.8787 17.315C23.8637 16.4367 23.8561 15.9968 23.6793 15.6639C23.5236 15.3708 23.2784 15.1347 22.9802 14.989C22.6411 14.8235 22.2016 14.831 21.3215 14.8461L19.7255 14.8733M15.3736 14.9477L19.7255 14.8733M15.3736 14.9477C15.2735 14.9494 15.1912 14.8696 15.1895 14.7695L15.1523 12.5936C15.13 11.2917 16.1674 10.2183 17.4692 10.196C18.7711 10.1738 19.8445 11.2111 19.8667 12.513L19.9039 14.6889C19.9056 14.7891 19.8256 14.8716 19.7255 14.8733" stroke="#1D4ED8" stroke-width="2" stroke-linecap="round" stroke-linejoin="round"/>
</svg>
