<svg width="35" height="35" viewBox="0 0 35 35" fill="none" xmlns="http://www.w3.org/2000/svg">
<circle cx="17.5" cy="17.5" r="17.5" fill="#BFDBFE"/>
<path d="M15.0032 14.9394C15.1526 14.4789 15.4264 14.0691 15.7944 13.7545C16.1625 13.44 16.6108 13.2333 17.089 13.1574C17.5672 13.0816 18.0567 13.1393 18.504 13.3245C18.9514 13.5097 19.3388 13.8152 19.6234 14.2068C19.9081 14.5984 20.0785 15.061 20.1166 15.5436C20.1546 16.0263 20.0584 16.5102 19.8386 16.9416C19.6188 17.373 19.2845 17.7349 18.8717 17.9879C18.4589 18.2409 17.9841 18.3748 17.5 18.3748V19.2502M17.5 25.375C13.1508 25.375 9.625 21.8492 9.625 17.5C9.625 13.1508 13.1508 9.625 17.5 9.625C21.8492 9.625 25.375 13.1508 25.375 17.5C25.375 21.8492 21.8492 25.375 17.5 25.375ZM17.5436 21.875V21.9625L17.4564 21.9627V21.875H17.5436Z" stroke="#1D4ED8" stroke-width="2" stroke-linecap="round" stroke-linejoin="round"/>
</svg>
